<?xml version="1.0" encoding="utf-8"?>
<!-- Generator: Adobe Illustrator 23.0.5, SVG Export Plug-In . SVG Version: 6.00 Build 0)  -->
<svg version="1.1" id="Layer_1" xmlns="http://www.w3.org/2000/svg" xmlns:xlink="http://www.w3.org/1999/xlink" x="0px" y="0px"
	 viewBox="0 0 40 40" style="enable-background:new 0 0 40 40;" xml:space="preserve">
<style type="text/css">
	.st0{fill:#007BFF;}
</style>
<path class="st0" d="M19.92,19.94c0,0.02,0.02,0.02,0.02,0.04c0.02,0.02,0.04,0.04,0.04,0.06c0.02,0.02,0.04,0.06,0.04,0.08
	c0.02,0,0.04,0,0.06,0l0,0c0,0,0,0,0-0.02c0-0.06,0-0.16-0.04-0.2C20.02,19.86,19.9,19.88,19.92,19.94z"/>
<path class="st0" d="M19.99,19.97c-0.02,0-0.04,0.04-0.02,0.06c0.02,0,0.04,0,0.04,0c0-0.02,0.02-0.02,0.02-0.04
	C20.03,19.97,20.01,19.95,19.99,19.97z"/>
<path class="st0" d="M20.02,19.98C20.02,19.98,20,19.98,20.02,19.98c-0.02-0.02-0.04-0.02-0.04-0.02c-0.02,0-0.02,0.02-0.02,0.02
	c0.02,0.02,0.04,0.06,0.06,0.06h0.02v-0.02C20.02,20,20,19.98,20.02,19.98z"/>
<path class="st0" d="M19.99,19.98c-0.02,0-0.02,0-0.02,0.02s0,0.02,0.02,0.02s0.04,0,0.04-0.02C20.01,20,19.99,19.98,19.99,19.98z"
	/>
<path class="st0" d="M20,20L20,20C19.98,20,19.98,20.02,20,20C20,20.02,20.02,20,20,20C20.02,20,20,20,20,20z"/>
<path class="st0" d="M20.03,19.98c-0.02-0.02-0.06,0-0.06,0.02c0,0,0,0.02,0.02,0.02s0.02,0,0.02-0.02
	C20.03,20,20.05,19.98,20.03,19.98z"/>
<path class="st0" d="M19.97,19.92c0,0.02,0,0.04-0.02,0.06c0,0.02,0,0.04,0,0.06l0.02,0.02v0.02l0,0c0.02,0,0.02,0.02,0.04,0.02
	s0.02,0,0.04-0.02c0,0,0-0.02,0-0.04c0-0.04,0-0.06,0-0.1c0-0.02-0.02-0.04-0.02-0.04C20.01,19.9,19.99,19.92,19.97,19.92z"/>
<path class="st0" d="M19.88,20.26c0.02,0.04,0.04,0.06,0.04,0.1l0,0h0.02c0.04-0.02,0.08-0.08,0.08-0.14c0-0.04-0.02-0.06-0.02-0.1
	c0-0.02,0-0.06,0-0.08c0-0.04,0.02-0.1,0.02-0.14c0.02,0.02,0.06-0.02,0.08-0.04c0.02-0.04,0-0.06,0.02-0.1c0-0.02,0-0.04-0.02-0.06
	v-0.02c-0.02-0.02-0.04-0.02-0.06-0.02c0,0.02-0.02,0.04-0.06,0.04c-0.02,0.02,0,0.02,0.02,0.04s0.02,0.06,0,0.08
	c0,0.02-0.02,0.04-0.02,0.06c-0.02,0.06-0.04,0.12-0.04,0.18c0,0.02-0.02,0.06-0.02,0.08C19.92,20.17,19.9,20.21,19.88,20.26z"/>
<path class="st0" d="M19.94,20.12c0,0.02,0.02,0.04,0.04,0.06c0-0.02,0-0.06,0-0.08H20c0.02,0,0.04,0,0.04,0
	c0.02-0.02,0.02-0.02,0.02-0.04s-0.02-0.04-0.02-0.08c-0.02,0-0.04-0.02-0.04-0.04c0.02,0,0.02,0,0.04-0.02c0.02-0.02,0-0.06,0-0.08
	v-0.02c0,0,0,0-0.02,0c-0.04,0-0.06,0.04-0.08,0.08s0,0.08,0,0.1C19.98,20.04,19.94,20.08,19.94,20.12z"/>
<path class="st0" d="M20,19.97c0,0.02,0,0.04-0.02,0.06c0.02,0,0.04,0,0.04-0.02c0-0.02,0-0.02,0-0.04
	C20.02,19.97,20,19.97,20,19.97z"/>
<path class="st0" d="M20.03,19.98c0-0.02,0-0.02,0-0.04h-0.02c0,0.02-0.02,0.04-0.02,0.06c-0.02,0.02-0.04,0.04-0.02,0.06
	c0.02,0.02,0.06,0,0.06-0.02C20.03,20.02,20.03,20,20.03,19.98z"/>
<path class="st0" d="M20,19.98L20,19.98c-0.02,0-0.02,0.02-0.02,0.02c0.02,0.02,0.04,0.02,0.04,0C20.04,20,20.02,20,20,19.98
	C20.02,19.98,20,20,20,19.98z"/>
<g>
	<path class="st0" d="M29.45,29.04c0,0,0.42-0.32-0.37,0c-0.79,0.32-1.42,0.74-1.42,0.74v0.64v0.62c0,0-0.95,0.32,0,0.84
		c0,0,0.21,0.11,0.63,0c0.42-0.11,0.42-0.11,0.42-0.11s0.32-0.32,0.95-0.74s0.84-0.95,0.84-0.95l-0.53-1.05H29.45z"/>
	<path class="st0" d="M20,1.5C9.8,1.5,1.5,9.8,1.5,20S9.8,38.5,20,38.5S38.5,30.2,38.5,20S30.2,1.5,20,1.5z M35.65,25.78
		c-0.42,0.42-0.53,0.53-1.26,0.84c0,0-0.42,0.74-0.95,1.05c-0.53,0.32,0,0.53,0,0.53v0.7l-0.53,0.67l-0.53,0.85l-0.53,0.94
		l-0.84,0.57v0.48v0.74c0,0-0.03,0.06-0.07,0.16c-2.98,2.46-6.8,3.94-10.96,3.94c-4.6,0-8.77-1.81-11.87-4.75l-0.12-0.29l0.11-0.53
		h0.74v-0.53v-0.42l-0.53-0.74v-0.42v-0.42v-0.32v-1.37v-0.63v-0.42H7.69H6.75l-0.84-0.63l-0.74-0.63v-0.42H3.91v-0.84v-0.74H3.17
		l-0.15-0.16C2.86,22.02,2.76,21.02,2.76,20c0-2.37,0.48-4.64,1.35-6.7c0.19-0.08,0.32-0.14,0.32-0.14h0.42c0,0,0.32,0.32,0.63,0
		c0.32-0.32,0.84,0,0.84,0s0.32,0.14,0.63-0.14c0.32-0.28,0.53-0.49,0.63-0.81c0.11-0.32,0.11-0.32,0.11-0.32s-0.74-0.74,0-0.95
		s0.89-0.32,1.39-0.53c0.5-0.21,0.5-0.21,0.5-0.21h0.84V9.59V8.96V8.02l0.63-0.63c0,0,0.42-0.21,0-0.53
		c-0.29-0.22-0.73-0.68-0.97-0.95c2.81-1.98,6.23-3.15,9.92-3.15c3.14,0,6.09,0.85,8.63,2.32l-0.75,0.83l-0.74,0.63h-0.53
		c0,0-0.32,0.21-0.74,0c-0.42-0.21-1.05-0.74-1.05-0.74l-0.42-0.69c0,0-0.42-0.06-0.74,0c-0.32,0.06-0.84,0-0.84,0H22.2h-0.74
		L19.04,5.6c-0.21,0.53,0.63,1.47,0,2s-0.63,0.53-0.63,0.53v0.95l-0.53,0.53v0.63l-0.74,0.63l-0.74-0.74c0,0,0.32-0.42,0-0.63
		C16.1,9.28,16.1,9.28,16.1,9.28l-1.26-0.32c0,0-0.63,0.42-0.95,0.63S13.58,9.8,13.58,9.8l0.53,1.05h0.53h0.63l0.32,0.74l-0.63,0.63
		c0,0,0.11-0.42-0.74,0c-0.84,0.42-0.84,0.42-0.84,0.42s-0.42,0.63,0,0.95c0.42,0.32,1.16,1.23,1.16,1.23l-1.89,1.19
		C12,16.64,12,17.06,11.79,18.32s-0.47,1.16-0.55,1.68c-0.08,0.53,0,1.16,0,1.16l-0.04,0.63c0,0-0.72,0,0.04,0.53
		c0.66,0.45,1.29,0.99,1.45,1.12c0.03-0.02,0.19-0.03,0.78,0.03c1.05,0.11,2.94,0,2.94,0l1.26,1.37l0.63,1.37l0.42,0.53
		c0,0,0.53,0.53,0.63,0.84c0.11,0.32,0.74,0.74,0.74,0.74v0.53c0,0-0.32,0.74-0.32,1.05c0,0.32,0,0.32,0,0.32l0.87,1.26v0.95
		c0,0-0.18,0.32,0,0.63c0.18,0.32,0.18,0.32,0.18,0.32s0.11,0.53,0.32,0.84c0.21,0.32,0.21,0.32,0.21,0.32s0.32,0.84,0.63,0.53
		c0.32-0.32,0.32-0.32,0.32-0.32l0.95-1.26l0.53-0.11l1.26-0.53l0.63-0.95l0.63-0.95l0.11-0.63l0.21-0.95c0,0,0.53-0.42,0.74-0.74
		c0.21-0.32,0.21-0.53,0.42-0.84c0.21-0.32,0.63-0.95,0.63-0.95l0.42-0.74l0.74-0.74c0,0,0.95-0.73,0.84-1.05
		c-0.11-0.32,0.01-0.84,0.01-0.84l0.83-0.63v-1.16H30.4l-0.74-0.21c0,0-0.32-0.42-0.63-0.42c-0.32,0,0.53,0.63-0.32,0
		c-0.84-0.63-0.84-0.63-0.84-0.63L27.14,20l-0.63-1.16c0,0,0.53-0.21-0.11-0.63s-0.11,0.32-0.63-0.42s-0.53-0.74-0.53-0.74
		l-1.05-1.05h-0.63h-0.53h-0.63h-0.42c0,0,0,0.42-0.53,0c-0.41-0.33-1.29-0.6-1.64-0.7c-0.04,0-0.15-0.04-0.15-0.04
		s0.06,0.01,0.15,0.04c0.06,0,0-0.09-0.68-0.5c-1.16-0.7-1.16-0.7-1.16-0.7l-0.74-0.08c0,0-0.42-0.44,0-0.76
		c0.42-0.32,0.42-0.32,0.42-0.32l0.84-0.21l0.63-0.21l0.53-0.53l1.89,0.74l0.53,0.53l0.63,0.32l0.74,0.44c0,0,0.11-0.44,0.53-0.44
		s0.42,0,0.42,0l0.84,1.23h0.42l0.42,0.56l-0.11,0.63v0.53c0,0,0.32,0,0.63,0.53c0.32,0.53,0.32,0.53,0.32,0.53s0.11,0.32,0.53,0.74
		c0.42,0.42,0.42,0.42,0.42,0.42s0.32,0.18,0.63,0.61c0.32,0.44,0.32,0.44,0.32,0.44s0.11-0.53,0.53,0.21s0.42,0.74,0.42,0.74
		s0.42,0.11,0.74,0.11c0.32,0,0.74-0.21,0.74-0.21s0.32-0.42,0.63-0.63c0.32-0.21,0.53-0.65,0.53-0.65v-0.82l0.63-0.42l0.53-0.21
		c0,0,0.53-0.11,0.74,0.21c0.21,0.32,0.21,0.32,0.21,0.32s0.32,0.49,0.42,0.93s0.11,0.44,0.11,0.44v1.05v0.42l0.63,0.53
		c0,0-0.95,0.95,0,0.42s0.84,0.42,0.95-0.53c0.08-0.7,0.45-1.65,0.63-2.09c0,0.13,0.01,0.27,0.01,0.4c0,1.74-0.26,3.43-0.75,5.01
		C36.27,25.2,35.92,25.51,35.65,25.78z"/>
</g>
</svg>
