<?xml version="1.0" encoding="utf-8"?>
<!-- Generator: Adobe Illustrator 23.0.5, SVG Export Plug-In . SVG Version: 6.00 Build 0)  -->
<svg version="1.1" id="Layer_1" xmlns="http://www.w3.org/2000/svg" xmlns:xlink="http://www.w3.org/1999/xlink" x="0px" y="0px"
	 viewBox="0 0 40 40" style="enable-background:new 0 0 40 40;" xml:space="preserve">
<style type="text/css">
	.st0{fill:#007BFF;}
	.st1{fill:#FFFFFF;}
</style>
<circle class="st0" cx="20" cy="20" r="18.5"/>
<path class="st1" d="M12.77,24.01c0.07,0,0.15,0.07,0.15,0.18c0,0.07-0.07,0.15-0.15,0.15c-0.04,0.22-0.04,0.47-0.07,0.69
	c0,0.15,0,0.25,0.04,0.4c0,0.04,0.04,0.11,0.07,0.15c0.04,0.04,0.07,0.04,0.07,0.04c0.07,0.04,0.15,0.11,0.15,0.18
	c0,0.11-0.11,0.22-0.15,0.33s0,0.18,0.04,0.29c0.07,0.29,0.15,0.58,0.25,0.87c0.07,0.15,0.11,0.33,0.15,0.51
	c0.04,0.25,0.11,0.47,0.11,0.73c0,0.22,0.11,0.44,0.25,0.62s0.25,0.36,0.33,0.58c0,0.07,0.04,0.18,0.04,0.25
	c0.04,0.15,0.18,0.25,0.29,0.33c0.04,0.04,0.07,0.07,0.07,0.11c0.04,0.04,0.04,0.07,0.04,0.11c0.04,0.15,0.07,0.36,0.18,0.47
	c0.25,0.29,0.22,0.76,0.33,1.13c0.04,0.11,0.07,0.18,0.11,0.29c0,0.04,0,0.11,0.04,0.15s0.04,0.07,0.07,0.11
	c0.07,0.11,0.15,0.22,0.15,0.36c0.11,0.11,0.22,0.18,0.33,0.25c0.04,0.04,0.07,0.04,0.11,0.07c0.04,0.07,0.04,0.15,0.07,0.18
	c0.04,0.07,0.07,0.11,0.15,0.18c0.04,0.07,0.07,0.11,0.07,0.18c0.07,0.22,0.15,0.44,0.22,0.66c0.04,0.07,0.07,0.18,0.11,0.25
	c0.07,0.11,0.18,0.18,0.22,0.29s-0.04,0.22-0.07,0.29c0.04,0.18,0.07,0.33,0.15,0.51c0.04,0.07,0.04,0.15,0.11,0.22
	c0.04,0.04,0.07,0.04,0.11,0.07c0.11,0.11,0.11,0.29,0.22,0.4c0.07,0.07,0.22,0.11,0.29,0.18c0.04,0.07,0.07,0.15,0.11,0.18
	c0.04,0.04,0.11,0.04,0.18,0.04c0.18-0.04,0.33-0.11,0.51-0.15c0.15-0.04,0.25-0.22,0.25-0.36c0-0.04,0-0.07,0-0.15
	c0.04-0.07,0.07-0.07,0.11-0.15c0-0.04,0-0.07,0.04-0.11c0-0.04,0.07-0.07,0.11-0.07c0.25-0.11,0.55-0.18,0.8-0.18
	c-0.07-0.04-0.15-0.04-0.22-0.07c-0.07-0.04-0.11-0.11-0.11-0.18c0-0.07,0.04-0.11,0.04-0.15c0.04-0.11,0.11-0.22,0.18-0.25
	c0.04-0.04,0.07-0.04,0.07-0.07s0-0.07,0.04-0.11c0.04-0.11,0.11-0.18,0.22-0.22c0.15-0.04,0.25-0.07,0.4-0.04
	c-0.04-0.4-0.15-0.87-0.11-1.31c0.04-0.22,0.07-0.44,0.18-0.66c0.07-0.11,0.18-0.18,0.22-0.29c0.15-0.22,0.15-0.47,0.11-0.73
	c-0.04-0.25-0.11-0.47-0.18-0.73c0-0.07-0.04-0.15-0.04-0.22c0-0.11,0.07-0.22,0.07-0.33c0-0.18-0.11-0.33-0.18-0.47
	c-0.07-0.15-0.04-0.33,0.04-0.47c0-0.04,0.04-0.04,0.04-0.07c0-0.04,0-0.07,0.04-0.11c0.04-0.18,0.18-0.33,0.36-0.36
	c0.07,0,0.15,0,0.18-0.04c0.04,0,0.07-0.04,0.11-0.04c0,0,0.04,0,0.04,0.04c0.07,0.07,0.22,0,0.25-0.11
	c0.04-0.11,0.04-0.22,0.11-0.29c0.07-0.11,0.25-0.15,0.36-0.15c0.18-0.04,0.33-0.07,0.51-0.11c0.07-0.04,0.18-0.07,0.18-0.15
	c0.04-0.15-0.11-0.25-0.11-0.4c0-0.07,0.07-0.15,0.15-0.18c0.29-0.18,0.62-0.29,0.84-0.55c0.04-0.07,0.11-0.15,0.15-0.22
	c0.11-0.15,0.29-0.22,0.44-0.29c0.33-0.22,0.58-0.55,0.84-0.84c0.11-0.11,0.18-0.22,0.25-0.36c0.15-0.04,0.25-0.18,0.29-0.33
	c-0.04,0-0.07,0-0.11,0c0.04-0.07,0.07-0.15,0.11-0.18c0.04-0.07,0.11-0.15,0.18-0.18c0.07-0.04,0.18,0.04,0.18,0.11
	c0.25,0,0.51,0,0.66-0.22c0-0.04,0.04-0.04,0.04-0.04h0.04c0.07,0,0.11-0.07,0.18-0.11c0.07-0.07,0.11-0.15,0.15-0.22
	c0-0.04,0-0.11,0.07-0.15c0.04,0,0.04,0,0.07,0s0.07-0.07,0.07-0.11c0-0.04-0.07-0.07-0.11-0.07c0-0.04,0.04-0.07,0.07-0.11
	c0.04-0.04,0.07-0.04,0.11-0.07c0.04-0.04,0.04-0.15,0-0.15c-0.11-0.07-0.15-0.22-0.07-0.33c0.07-0.11,0.15-0.22,0.29-0.25
	c0.11-0.04,0.25-0.07,0.36-0.11c0.11-0.04,0.22-0.07,0.29-0.11c0.04,0,0.07-0.04,0.11-0.07c0.11-0.07,0.11-0.25,0.04-0.33
	c0.07,0,0.15,0,0.18,0c0-0.04-0.04-0.07,0-0.11c0.04-0.04,0.07-0.04,0.07,0c0,0.07,0,0.18,0,0.25c0.11,0.04,0.22-0.04,0.22-0.15
	c0.07,0,0.11,0.04,0.18,0.04c0-0.04,0-0.11,0.04-0.15c0.04,0,0.07,0.04,0.07,0.07c0.07-0.11,0.11-0.18,0.18-0.29
	c0.04-0.04,0.04-0.07,0-0.11c-0.04-0.07-0.18,0-0.22-0.07c0.07-0.04,0.15-0.04,0.22-0.04c0,0,0.04,0.04,0.07,0.04
	c0-0.04,0.07-0.15,0.04-0.18c-0.07-0.11-0.07-0.22-0.04-0.33c0-0.04,0.04-0.11,0-0.15c0,0-0.04,0-0.04-0.04
	c-0.07-0.04-0.11-0.11-0.11-0.18c0-0.07,0-0.15,0.04-0.22c-0.07-0.04-0.15-0.11-0.22-0.15c0-0.07,0.04-0.11,0.07-0.15
	c0.11-0.15,0.15-0.36,0.11-0.58c-0.11,0-0.18-0.15-0.29-0.15c-0.04,0-0.07,0-0.11,0c-0.11,0-0.18-0.11-0.22-0.18
	c-0.04-0.11,0-0.22,0.04-0.29c0.04,0.04,0.07,0,0.07-0.04c0.04-0.04,0.04-0.07,0.07-0.07s0.04,0,0.07,0c0.04,0,0.04-0.07,0.07-0.11
	c0.04-0.07,0.11-0.11,0.18-0.15c0.07,0,0.15,0,0.22,0c0.04,0,0.07,0,0.11-0.04c0.04-0.04,0.04-0.07,0-0.11
	c-0.04,0.04-0.11,0-0.11-0.04c0-0.04-0.04-0.07-0.07-0.11c-0.04-0.04-0.11-0.07-0.15-0.07c-0.04,0.04-0.15,0.04-0.18,0
	c-0.04-0.04-0.07-0.11-0.11-0.15c0-0.04-0.04-0.07-0.07-0.07s-0.07,0-0.07,0c-0.07,0-0.11-0.11-0.11-0.18
	c0-0.07,0.07-0.15,0.07-0.18s0-0.11,0.04-0.15c0.04-0.04,0.15-0.04,0.18-0.11c0.04-0.04,0.04-0.11,0.04-0.15s0.07-0.07,0.11-0.04
	c0.04,0,0.07,0.04,0.07,0.07s0,0.07,0.04,0.11c0.04,0.07,0.15,0.07,0.22,0.07c0.07-0.04,0.18-0.04,0.25,0
	c0.04,0.04,0.07,0.11,0.11,0.18c0.04,0.04,0.07,0.04,0.11,0.07c0.07,0.04,0.11,0.04,0.18,0.07c0.04,0,0.07,0.04,0.11,0
	c0.04-0.04,0.04-0.07,0.04-0.11s0.04-0.11,0.07-0.11c0.04,0.07,0.11,0.11,0.15,0.18c0.11,0.18-0.04,0.4,0,0.62
	c0.04,0.07,0.07,0.15,0.15,0.18c0.07,0.07,0.18,0.07,0.29,0.07c0.07,0,0.18,0.04,0.25,0.04s0.15,0.04,0.22,0
	c0.07,0,0.11-0.04,0.18-0.04c0.11,0,0.25,0.04,0.36,0.04c0.25,0.04,0.47-0.07,0.73-0.07c0.18,0,0.33,0.07,0.44,0.18
	c0.04,0.07,0,0.11-0.04,0.18c0,0.04-0.04,0.07-0.04,0.07c-0.04,0.15-0.07,0.25-0.15,0.4c-0.11,0.07-0.15,0.18-0.22,0.25l-0.04,0.04
	c-0.07,0.04-0.15,0.07-0.22,0.07c-0.22,0.04-0.44,0.18-0.47,0.4c-0.04,0.18,0.04,0.36,0.11,0.51c0.04,0.07,0.11,0.15,0.18,0.22
	c0.04,0.04,0.07,0.07,0.15,0.11c0.04,0.04,0.11,0,0.15-0.04c0.07-0.11-0.04-0.29,0.04-0.4c0.04-0.04,0.07-0.04,0.11-0.07
	c0.07-0.07,0.04-0.18,0.07-0.25c0.04-0.11,0.18-0.11,0.29-0.04c0.07,0.07,0.11,0.18,0.15,0.29c0.04,0.15,0.04,0.25,0.04,0.4
	c0,0.04,0,0.11,0,0.15s0.04,0.07,0.07,0.11c0.11,0.15,0.07,0.36,0.15,0.55c0.04,0.11,0.07,0.18,0.18,0.29
	c0.07,0.07,0.22,0.11,0.25,0.04c0.04-0.04,0.04-0.11,0.07-0.15c0.04-0.04,0.15-0.07,0.11-0.15c-0.07-0.25-0.07-0.51-0.04-0.76
	c0.04,0.04,0.11,0.04,0.18,0c0-0.04,0-0.07,0.04-0.11l0.04-0.04v-0.04c0-0.07,0-0.15,0.04-0.25c0-0.18,0.04-0.4-0.07-0.58
	c-0.04-0.04-0.04-0.11,0-0.11c0.11-0.04,0.18,0.11,0.29,0.11c0.11,0,0.22-0.07,0.33,0c0.04,0,0.04,0.04,0.07,0.07
	c0.07,0.04,0.15-0.07,0.15-0.15c0.04-0.11,0.07-0.22,0.11-0.33c0-0.04,0.04-0.11,0.04-0.15c0.07-0.15,0.22-0.22,0.29-0.36
	c0.04-0.07,0.07-0.18,0.11-0.25c0.04-0.07,0.04-0.18-0.04-0.18c-0.04-0.04-0.11,0-0.15-0.04c0-0.18,0.11-0.33,0.25-0.36
	c0.07-0.04,0.07-0.18,0.15-0.22c0.04,0,0.04,0,0.07-0.04c0.04-0.04,0.04-0.11,0.04-0.18c0-0.07,0.07-0.07,0.11-0.15
	s-0.07-0.18-0.07-0.25c-0.04-0.07,0-0.15,0-0.22c0-0.04,0.04-0.11,0.07-0.15c0.04-0.04,0.11-0.04,0.15-0.07
	c0.11-0.04,0.18-0.18,0.25-0.25c0.11-0.11,0.33-0.18,0.4-0.33c0-0.04,0.04-0.07,0.04-0.07s0.04,0,0.07-0.04
	c0.07,0,0.15-0.04,0.22-0.04c0.11-0.04,0.18-0.07,0.25-0.15c0.11,0.04,0.25,0.07,0.33,0.18c0.04,0.04,0.04,0.07,0.07,0.11
	c0.04,0.04,0.07,0.04,0.11,0c0.04-0.11-0.04-0.18-0.07-0.29c-0.04-0.07-0.07-0.22-0.04-0.29c0.07-0.07,0.22-0.07,0.25-0.18
	c0.04-0.07,0.04-0.15,0.04-0.22c0.04-0.11,0.11-0.22,0.04-0.33c-0.04-0.04-0.07-0.04-0.07-0.07c-0.07-0.04-0.18-0.07-0.25-0.11
	c-0.22-0.07-0.44-0.11-0.66-0.07c0.04-0.18,0.15-0.33,0.29-0.4c0-0.04,0-0.07-0.04-0.11c-0.04-0.04-0.07-0.11-0.11-0.18
	c-0.07,0-0.11,0.04-0.18,0.04c-0.07,0-0.15-0.04-0.15-0.07c0-0.11,0.22-0.15,0.22-0.25c-0.11,0-0.25-0.07-0.29-0.18
	c-0.07,0.04-0.11,0.07-0.18,0.11c-0.15,0.07-0.29,0.15-0.36,0.29c0,0.04-0.04,0.04-0.04,0.07c-0.04,0.04-0.07,0.04-0.15,0
	c-0.04-0.04-0.07-0.07-0.11-0.07c-0.11-0.04-0.22-0.04-0.36-0.04c-0.04,0-0.11,0-0.15-0.04c-0.07-0.07-0.07-0.18-0.15-0.15
	c-0.04,0.11-0.18,0.15-0.29,0.22c-0.11,0.07-0.15,0.18-0.22,0.29c-0.11,0.15-0.29,0.25-0.51,0.25c-0.11,0-0.22,0-0.29,0.04
	c-0.11,0.07-0.07,0.29-0.18,0.4c-0.04,0.04-0.11,0.07-0.18,0.11c-0.07,0.04-0.15,0.07-0.22,0.11c-0.04,0.04-0.07,0.04-0.07,0.07
	c0,0.04,0,0.07,0.04,0.07c0.04,0.04-0.04,0.07-0.07,0.11c-0.11,0.04-0.18,0.07-0.29,0.11c-0.11-0.11-0.33,0.07-0.47,0.04
	c-0.04,0-0.07-0.04-0.11-0.04c-0.11,0-0.18,0.07-0.18,0.18c0,0.11,0.11,0.18,0.18,0.18c0.07,0,0.15,0,0.18,0.04
	c0.11,0.07,0.04,0.25,0.07,0.4c0.04,0.07,0.11,0.15,0.07,0.22c-0.04,0.07-0.11,0.07-0.18,0.07c-0.36,0.04-0.69,0.04-1.06,0.07
	c-0.07,0-0.15,0-0.18-0.04c-0.04-0.04-0.07-0.11-0.15-0.11c-0.07-0.04-0.18-0.04-0.25,0.04c-0.07,0.07-0.15,0.15-0.22,0.18
	c-0.18,0.07-0.36,0.04-0.55-0.04c-0.11-0.04-0.18-0.07-0.29-0.11c-0.11-0.04-0.18-0.07-0.29-0.11c-0.04,0-0.07-0.04-0.11-0.07
	c-0.07-0.07-0.07-0.18-0.04-0.25c0.04-0.04,0.07-0.07,0.07-0.11c0.04-0.07-0.07-0.15-0.11-0.25c-0.04-0.15,0.11-0.29,0.07-0.44
	c-0.04-0.11-0.15-0.18-0.25-0.22c-0.11,0-0.22,0.04-0.36,0.07c-0.07,0.04-0.11,0.04-0.15,0.11c0,0.04-0.04,0.07-0.04,0.11
	c-0.04,0.15-0.04,0.29-0.07,0.44c0,0.11-0.04,0.22,0,0.33c0.04,0.18,0.18,0.4,0.11,0.58c-0.04,0.11-0.15,0.18-0.25,0.22
	c-0.11,0.04-0.22,0.04-0.36,0.04c-0.11,0-0.18,0-0.29-0.04c-0.04,0-0.07-0.04-0.11-0.04c-0.07-0.04-0.18,0-0.25,0
	c-0.15,0-0.33-0.04-0.47-0.04c-0.15-0.04-0.29-0.04-0.47-0.07c-0.04,0-0.11,0-0.15-0.04c-0.07-0.04-0.11-0.11-0.18-0.15
	c-0.07-0.04-0.15-0.07-0.22-0.04c-0.04,0.04-0.07,0.07-0.11,0.07c-0.07,0-0.11-0.04-0.15-0.07c-0.25,0-0.4-0.15-0.62-0.18
	c0-0.07,0-0.15,0-0.22c-0.11-0.11-0.29-0.07-0.4-0.15c-0.04-0.04-0.07-0.04-0.11-0.07c-0.15-0.04-0.25,0.11-0.4,0.11
	c-0.07,0-0.11-0.04-0.15-0.07c-0.04-0.04-0.11-0.04-0.15-0.04c-0.04,0.04-0.07,0.07-0.11,0.11c-0.07,0.04-0.18-0.04-0.25-0.07
	c-0.15-0.07-0.33-0.04-0.4-0.18c0-0.04-0.04-0.04-0.04-0.07c-0.04-0.04-0.15-0.04-0.22-0.04c-0.15,0-0.25-0.11-0.4-0.15
	c-0.15-0.04-0.29-0.04-0.44-0.11c-0.11-0.04-0.22-0.15-0.29-0.25c-0.04-0.07-0.11-0.11-0.15-0.18c-0.04-0.04-0.04-0.04-0.07-0.07
	c-0.04,0-0.04-0.04-0.07-0.04c-0.18-0.07-0.33-0.18-0.51-0.25c0,0-0.04-0.04-0.07-0.04c-0.04,0-0.07,0-0.07,0
	c-0.15,0.04-0.29-0.07-0.33-0.18c-0.04-0.15,0-0.29,0.11-0.36c0.04-0.04,0.07-0.04,0.07-0.07c0-0.04,0-0.07-0.04-0.11
	c0-0.07,0.04-0.15,0.07-0.22c0-0.07-0.04-0.18,0.04-0.25c0-0.04,0.04-0.04,0.04-0.04c0.11-0.07,0.18-0.15,0.29-0.22
	c0-0.15,0.11-0.25,0.25-0.29c0.04,0,0.07-0.04,0.07-0.04s0-0.04-0.04-0.04c-0.07-0.04-0.18-0.04-0.25-0.11
	c-0.04-0.04-0.07-0.07-0.07-0.11c-0.07-0.07-0.25-0.04-0.33-0.15c-0.04-0.04-0.04-0.07-0.07-0.11s-0.07-0.04-0.07-0.07
	c-0.15-0.07-0.25-0.18-0.4-0.25c-0.04-0.04-0.07-0.04-0.11-0.04s-0.11,0-0.18,0c-0.11,0-0.18-0.07-0.25-0.15
	c-0.04-0.07-0.11-0.11-0.11-0.22c0-0.11,0.04-0.18,0.15-0.18c0.04,0,0.11,0.04,0.11,0.11c0,0.07-0.04,0.11-0.11,0.11
	c0.07,0,0.15-0.04,0.18-0.11c0-0.11-0.11-0.22-0.18-0.29c-0.07-0.04-0.11-0.07-0.18-0.07s-0.15,0.07-0.15,0.15
	c0.04,0.04,0.11,0,0.15-0.04c0.04-0.04,0.11-0.04,0.11,0.04c-0.04,0.04-0.07,0.07-0.15,0.11c-0.07,0.04-0.11,0.07-0.18,0.07
	c0,0.04-0.04,0.07-0.04,0.15c-0.04,0-0.07-0.04-0.07-0.07c-0.04-0.11,0-0.25-0.07-0.36c0-0.04-0.04-0.07-0.04-0.11s0-0.07,0.04-0.11
	c0.04-0.15-0.11-0.29-0.25-0.4c0.04-0.04,0.11-0.11,0.15-0.15c-0.07-0.07-0.15-0.07-0.22-0.07c-0.04-0.07,0-0.18,0.07-0.25
	c0.07-0.07,0.18-0.07,0.25-0.07c0,0.11,0.07,0.25,0.18,0.29h0.04c0.04,0,0.04-0.04,0.04-0.04c0.04-0.07,0.15-0.15,0.22-0.15
	c0.11-0.04,0.18-0.04,0.25-0.11c0.07-0.07,0.11-0.18,0-0.25c-0.04,0-0.07-0.04-0.07-0.07s0-0.07-0.04-0.11l-0.04-0.04
	c-0.07-0.07,0.11-0.22,0.07-0.29c-0.11-0.04-0.22-0.04-0.29,0.04C19,9.74,18.96,9.78,18.92,9.81c-0.04,0.04-0.11,0.04-0.15,0
	c-0.04-0.07,0-0.15,0.07-0.15c0.04,0,0.07-0.04,0.07-0.07c0-0.04-0.07-0.04-0.07-0.04c-0.04,0-0.07-0.07-0.07-0.11
	c0-0.04,0.04-0.07,0.07-0.15c0.07-0.11,0.07-0.29-0.07-0.36c0,0-0.04,0-0.04-0.04V8.87c0.04-0.07,0.11-0.11,0.18-0.11
	s0.15,0,0.22-0.04c0.07-0.04,0.11-0.07,0.18-0.15c0.04-0.04,0.07-0.07,0.07-0.15c0-0.07-0.04-0.11-0.07-0.11
	c0.07-0.04,0.11-0.07,0.11-0.15c0-0.04,0-0.04,0.04-0.07c0-0.04,0.04-0.04,0.07-0.04c0.11-0.07,0.18-0.22,0.25-0.29
	c0.04-0.04,0.07-0.07,0.11-0.11c0.04-0.04,0.04-0.07,0.04-0.15c0.04-0.18,0.07-0.33,0.11-0.51c0.04-0.11,0.04-0.22-0.04-0.25
	c-0.07-0.11-0.15-0.11-0.18-0.15c-0.07-0.04-0.11-0.11-0.18-0.15c-0.04,0-0.07,0-0.11,0c-0.11,0-0.25,0-0.36-0.07
	C19.14,6.32,19.07,6.32,19,6.35c-0.18,0.04-0.4,0.07-0.58,0.15c-0.07,0-0.15,0.04-0.22,0.07c-0.07,0.04-0.11,0.07-0.18,0.15
	c-0.18,0.15-0.36,0.22-0.58,0.29c-0.04,0-0.11,0.04-0.15,0c-0.11-0.04-0.15-0.18-0.25-0.29c-0.07-0.07-0.22-0.11-0.36-0.11
	c-0.11-0.04-0.25-0.11-0.25-0.25c0-0.04,0.04-0.11,0-0.15c0-0.04-0.07-0.07-0.11-0.07c-0.18-0.07-0.36-0.18-0.51-0.33
	c-0.04-0.04-0.07-0.07-0.11-0.07s-0.07,0-0.11,0c-0.11,0-0.18-0.11-0.25-0.18c-0.07-0.11-0.11-0.18-0.18-0.25
	c-0.15-0.11-0.33-0.15-0.51-0.22c-0.15-0.07-0.33-0.15-0.44-0.04c-0.04,0.04-0.04,0.07-0.07,0.11c-0.04,0.07-0.11,0.11-0.18,0.15
	c-0.18,0.11-0.4,0.25-0.66,0.25c-0.15,0-0.25-0.04-0.4,0c-0.15,0.07-0.22,0.22-0.36,0.33c-0.11,0.11-0.25,0.18-0.33,0.29
	c-0.07,0.11,0,0.25,0.15,0.33c0.15,0.07,0.4-0.07,0.47,0.07c0.04,0.04,0.04,0.07,0.04,0.11c0.07,0.18,0.29,0.22,0.47,0.22
	c0.04,0,0.07,0,0.11,0.04c0.04,0.04,0,0.11-0.04,0.18c-0.04,0.11,0.15,0.22,0.25,0.22c0.04,0.04,0.11,0,0.15,0.04
	c0.04,0,0.04,0.04,0,0.07c0,0.15-0.11,0.29-0.22,0.36c-0.07,0.04-0.18,0.07-0.22,0.15c0,0.04-0.04,0.04-0.04,0.07
	c0,0.04-0.04,0.04-0.07,0.04c-0.15,0.07-0.15,0.25-0.15,0.4c0,0.07,0,0.15,0.04,0.22c0.11,0.15,0.11,0.29,0.11,0.47
	c0,0.15,0,0.33,0.04,0.47c0.04,0.15,0.11,0.33,0.29,0.36c0.07,0.04,0.11,0.04,0.15,0.07c0.04,0,0.04,0.04,0.07,0.07
	c0.04,0.04,0.07,0.04,0.11,0.04c0.15,0.04,0.25,0.07,0.4,0.07c0.04,0,0.04,0,0.07,0.04c0.07,0.07,0.04,0.22,0.07,0.29
	c0.04,0.07,0.11,0.11,0.18,0.11c0.11,0,0.22,0,0.29,0.04c0.11,0.04,0.18,0.07,0.22,0.18c0,0.04,0,0.11-0.04,0.15
	c-0.04,0.04-0.11,0.04-0.15,0.07c-0.18,0.04-0.36,0.07-0.47,0.18c-0.18,0.15-0.22,0.44-0.22,0.69c0,0.07,0,0.15,0.04,0.18
	c0.04,0.04,0.07,0.04,0.11,0.07c0.04,0.04,0.07,0.07,0.07,0.11s-0.04,0.04-0.04,0.04c-0.18,0.18-0.4,0.4-0.58,0.58
	c-0.04,0.04-0.11,0.11-0.11,0.18s0,0.18,0.07,0.22c-0.07,0.15-0.25,0.22-0.4,0.22c-0.07,0-0.11,0-0.15,0.04
	c-0.04,0.04-0.04,0.07-0.04,0.11c-0.04,0.22-0.15,0.4-0.25,0.62c-0.04,0.11-0.11,0.18-0.15,0.29c-0.04,0.07-0.07,0.15-0.11,0.18
	c-0.15,0.15-0.4,0.15-0.51,0.33c-0.07,0.11-0.04,0.29-0.11,0.4c-0.07,0.11-0.22,0.15-0.22,0.25c0,0.04,0,0.07,0,0.11
	c-0.04,0.11-0.15,0.11-0.22,0.18c-0.07,0.07-0.18,0.15-0.29,0.11c-0.04,0-0.04-0.04-0.07-0.04c-0.04,0-0.07,0-0.11,0.04
	c-0.11,0.04-0.18,0.07-0.29,0.11c-0.11,0.04-0.25,0.07-0.33,0c-0.04-0.04-0.04-0.15-0.07-0.18c-0.04-0.07-0.18-0.11-0.25-0.07
	c-0.07,0.04-0.15,0.15-0.22,0.22c-0.04,0.07-0.11,0.18-0.15,0.25c0,0.04-0.04,0.07-0.07,0.11c-0.04,0.04-0.04,0.04-0.07,0.07
	c-0.11,0.07-0.22,0.18-0.29,0.33c-0.07,0.11-0.11,0.22-0.07,0.33c0.04,0.07,0.04,0.18,0.11,0.22c0.11,0.07,0.25,0.04,0.4,0.04
	c0.11,0,0.22,0.07,0.25,0.18c0.04,0.11,0,0.22-0.07,0.33c-0.04,0.04-0.07,0.07-0.11,0.11c0,0.04,0,0.11,0.04,0.15
	c0.04,0.07,0.07,0.15,0.11,0.22c0,0,0,0.04,0.04,0.04c0.11,0.07,0.25,0.11,0.36,0.07c0.04,0,0.04,0,0.07,0
	c-0.07-0.07-0.07,0-0.07,0.04c0,0.07,0.04,0.15,0.07,0.25c0.04,0.07,0.11,0.18,0.15,0.25c0,0.04,0.04,0.04,0.04,0.07
	c0.04,0.07,0.07,0.15,0.11,0.22c0,0.04,0.04,0.07,0.04,0.07c0,0.04,0,0.07,0,0.07c0,0.11,0.04,0.22,0,0.33
	c-0.04,0.07-0.11,0.15-0.18,0.15c-0.07,0.04-0.15,0.04-0.18,0c-0.07-0.04-0.11-0.11-0.07-0.18c-0.18,0.07-0.33,0.11-0.47,0.22
	c-0.04,0.04-0.11,0.07-0.15,0.07c-0.18,0.04-0.33-0.11-0.47-0.11c-0.22-0.04-0.47,0.15-0.66,0.04c0,0.11,0,0.22-0.04,0.33
	c-0.11,0-0.18,0-0.29-0.04c-0.04,0-0.07,0-0.11,0c0.07,0.07,0.18,0.11,0.25,0.07c0,0.04,0,0.11,0,0.15c-0.11,0-0.18,0.11-0.18,0.22
	s0.04,0.18,0.11,0.29c0.04,0.07,0.11,0.18,0.18,0.22c0.11,0.11,0.29,0.18,0.44,0.25s0.29,0.11,0.44,0.07c0.07,0,0.15-0.04,0.22-0.07
	c0.04,0,0.07-0.04,0.11-0.07c0.04-0.04,0.07-0.07,0.11-0.11c0.04-0.04,0.11-0.04,0.15-0.04c0.04,0.04,0.07,0.11,0.15,0.07
	c0.04,0,0.07-0.07,0.11-0.11c0.04-0.04,0.11-0.07,0.11,0c0,0.04,0,0.04-0.04,0.04c-0.07,0.11-0.15,0.18-0.18,0.29
	c0,0.11-0.07,0.22-0.18,0.25c-0.04,0-0.11,0-0.15,0c-0.04,0.04-0.04,0.07-0.07,0.07c-0.04,0.04-0.07,0.04-0.11,0.04
	c-0.07,0-0.15,0.04-0.18,0.04c-0.18,0.04-0.44,0.11-0.58-0.04c-0.04,0.04-0.11,0.07-0.11,0.15c0,0.04,0.07,0.07,0.11,0.11
	c0.15,0.11,0.22,0.29,0.33,0.4c0.11,0.11,0.25,0.18,0.4,0.18c-0.04,0.07,0.04,0.18,0.11,0.25c0.07,0.07,0.11,0.15,0.18,0.18
	c0.11,0.11,0.22,0.22,0.33,0.33c0.11,0.07,0.18,0.11,0.29,0.15c0.11,0.04,0.25,0.07,0.25,0.18c0.04,0.04,0.04,0,0.07,0
	c0-0.04,0.04-0.04,0.04-0.07c0.04-0.04,0.07-0.07,0.11-0.07c0.18-0.07,0.36-0.18,0.55-0.29c0.25-0.15,0.47-0.29,0.55-0.55
	c0.04-0.15,0-0.33,0-0.51c0-0.11,0-0.22,0.07-0.25c0.04,0,0.07,0,0.11-0.04c0.07,0,0.15,0,0.22-0.04c-0.11,0.15-0.18,0.36-0.07,0.51
	c0.04,0.04,0.07,0.07,0.11,0.15c0,0.04,0,0.11,0,0.15c-0.04,0.15,0,0.25,0.04,0.4C12.7,23.72,12.81,23.87,12.77,24.01z"/>
</svg>
